<svg xmlns="http://www.w3.org/2000/svg" xmlns:xlink="http://www.w3.org/1999/xlink" width="113" height="113" viewBox="0 0 113 113">
  <defs>
    <filter id="Trazado_982547" x="0" y="0" width="113" height="113" filterUnits="userSpaceOnUse">
      <feOffset dy="3" input="SourceAlpha"/>
      <feGaussianBlur stdDeviation="3" result="blur"/>
      <feFlood flood-opacity="0.161"/>
      <feComposite operator="in" in2="blur"/>
      <feComposite in="SourceGraphic"/>
    </filter>
  </defs>
  <g id="Grupo_1177649" data-name="Grupo 1177649" transform="translate(-821 -3921.63)">
    <g id="Grupo_1177491" data-name="Grupo 1177491" transform="translate(-492.437 873.322)">
      <g id="Grupo_1177182" data-name="Grupo 1177182" transform="translate(1322.436 3054.308)">
        <g id="Grupo_1176922" data-name="Grupo 1176922" transform="translate(0 0)">
          <g id="Grupo_1172322" data-name="Grupo 1172322" transform="translate(0)">
            <g id="Grupo_1164700" data-name="Grupo 1164700">
              <g id="Grupo_1160931" data-name="Grupo 1160931">
                <g id="Grupo_1160749" data-name="Grupo 1160749">
                  <g id="Grupo_1158891" data-name="Grupo 1158891">
                    <g id="Grupo_1157406" data-name="Grupo 1157406">
                      <g id="Grupo_1155793" data-name="Grupo 1155793">
                        <g id="Grupo_1154704" data-name="Grupo 1154704">
                          <g id="Grupo_1150790" data-name="Grupo 1150790">
                            <g id="Grupo_1154214" data-name="Grupo 1154214">
                              <g id="Grupo_1152583" data-name="Grupo 1152583">
                                <g id="Grupo_1146973" data-name="Grupo 1146973">
                                  <g id="Grupo_1146954" data-name="Grupo 1146954">
                                    <g transform="matrix(1, 0, 0, 1, -9, -6)" filter="url(#Trazado_982547)">
                                      <g id="Trazado_982547-2" data-name="Trazado 982547" transform="translate(9 6)" fill="#fbf8f2">
                                        <path d="M 47.50000762939453 93.49986267089844 C 41.28937911987305 93.49986267089844 35.26534271240234 92.28383636474609 29.59519386291504 89.88558197021484 C 24.11772727966309 87.56880950927734 19.19814109802246 84.25183868408203 14.97310066223145 80.02679443359375 C 10.74804782867432 75.8017578125 7.431074142456055 70.88218688964844 5.114300727844238 65.40471649169922 C 2.716034412384033 59.73458480834961 1.500007629394531 53.71054458618164 1.500007629394531 47.49993133544922 C 1.500007629394531 41.2893180847168 2.716034412384033 35.26527786254883 5.114300727844238 29.59514427185059 C 7.431074142456055 24.11769104003906 10.74804782867432 19.19810485839844 14.97310066223145 14.97306442260742 C 19.19814109802246 10.74803829193115 24.11772727966309 7.431051254272461 29.59519386291504 5.114291191101074 C 35.26534271240234 2.71602463722229 41.28937911987305 1.499997973442078 47.50000762939453 1.499997973442078 C 53.71063613891602 1.499997973442078 59.73468780517578 2.71602463722229 65.40482330322266 5.114291191101074 C 70.88230133056641 7.431051254272461 75.80187225341797 10.74803829193115 80.02692413330078 14.97306442260742 C 84.25196838378906 19.19810485839844 87.56893920898438 24.11769104003906 89.88571166992188 29.59514427185059 C 92.28398132324219 35.26527786254883 93.50000762939453 41.2893180847168 93.50000762939453 47.49993133544922 C 93.50000762939453 53.71054458618164 92.28398132324219 59.73458480834961 89.88571166992188 65.40471649169922 C 87.56893920898438 70.88218688964844 84.25196838378906 75.8017578125 80.02692413330078 80.02679443359375 C 75.80187225341797 84.25183868408203 70.88230133056641 87.56880950927734 65.40482330322266 89.88558197021484 C 59.73468780517578 92.28383636474609 53.71063613891602 93.49986267089844 47.50000762939453 93.49986267089844 Z" stroke="none"/>
                                        <path d="M 47.50000762939453 2.999992370605469 C 41.4912223815918 2.999992370605469 35.66377639770508 4.1761474609375 30.17951202392578 6.495796203613281 C 24.88085174560547 8.736930847167969 20.12152862548828 11.94596099853516 16.03376007080078 16.03372955322266 C 11.94599151611328 20.12149810791016 8.736961364746094 24.88080596923828 6.495803833007812 30.17946624755859 C 4.176162719726562 35.66371536254883 3.000007629394531 41.49116134643555 3.000007629394531 47.49993133544922 C 3.000007629394531 53.50870132446289 4.176162719726562 59.33614730834961 6.495803833007812 64.82038879394531 C 8.736961364746094 70.11905670166016 11.94597625732422 74.87836456298828 16.03376007080078 78.96613311767578 C 20.12152862548828 83.05390167236328 24.88085174560547 86.26291656494141 30.17951202392578 88.50406646728516 C 35.66377639770508 90.82369995117188 41.4912223815918 91.99985504150391 47.50000762939453 91.99985504150391 C 53.50879287719727 91.99985504150391 59.33623886108398 90.82369995117188 64.82049560546875 88.50406646728516 C 70.11916351318359 86.26291656494141 74.87848663330078 83.05390167236328 78.96625518798828 78.96613311767578 C 83.05403900146484 74.87836456298828 86.26305389404297 70.11905670166016 88.50421142578125 64.82038879394531 C 90.8238525390625 59.33614730834961 92.00000762939453 53.50870132446289 92.00000762939453 47.49993133544922 C 92.00000762939453 41.49116134643555 90.8238525390625 35.66371536254883 88.50421142578125 30.17946624755859 C 86.26305389404297 24.88080596923828 83.05402374267578 20.12149810791016 78.96625518798828 16.03372955322266 C 74.87848663330078 11.94596099853516 70.11916351318359 8.736930847167969 64.82049560546875 6.495796203613281 C 59.33623886108398 4.1761474609375 53.50879287719727 2.999992370605469 47.50000762939453 2.999992370605469 M 47.50000762939453 -7.62939453125e-06 C 73.73352813720703 -7.62939453125e-06 95.00000762939453 21.26645660400391 95.00000762939453 47.49993133544922 C 95.00000762939453 73.73342132568359 73.73352813720703 94.99985504150391 47.50000762939453 94.99985504150391 C 21.26648712158203 94.99985504150391 7.62939453125e-06 73.73342132568359 7.62939453125e-06 47.49993133544922 C 7.62939453125e-06 21.26645660400391 21.26648712158203 -7.62939453125e-06 47.50000762939453 -7.62939453125e-06 Z" stroke="none" fill="#2777df"/>
                                      </g>
                                    </g>
                                  </g>
                                </g>
                              </g>
                            </g>
                          </g>
                        </g>
                      </g>
                    </g>
                  </g>
                </g>
              </g>
            </g>
          </g>
        </g>
      </g>
    </g>
    <g id="coin_12260012_1_" data-name="coin_12260012 (1)" transform="translate(851.091 3918.159)">
      <g id="Grupo_1177637" data-name="Grupo 1177637" transform="translate(0 58.432)">
        <path id="Trazado_1037073" data-name="Trazado 1037073" d="M7,276.2H33.265v21.771H7Z" transform="translate(-6.225 -275.425)" fill="#fdbf00" fill-rule="evenodd"/>
        <path id="Trazado_1037074" data-name="Trazado 1037074" d="M27.04,292.51H.775A.77.77,0,0,1,0,291.735v-21.76a.77.77,0,0,1,.775-.775H27.04a.77.77,0,0,1,.775.775v21.771A.775.775,0,0,1,27.04,292.51ZM1.55,290.96H26.265V270.75H1.55Z" transform="translate(0 -269.2)"/>
      </g>
      <g id="Grupo_1177638" data-name="Grupo 1177638" transform="translate(0 72.942)">
        <path id="Trazado_1037075" data-name="Trazado 1037075" d="M27.04,401.85H.775a.775.775,0,0,1,0-1.55H27.04a.775.775,0,0,1,0,1.55Z" transform="translate(0 -400.3)"/>
      </g>
      <g id="Grupo_1177639" data-name="Grupo 1177639" transform="translate(0 65.681)">
        <path id="Trazado_1037076" data-name="Trazado 1037076" d="M27.04,336.25H.775a.775.775,0,0,1,0-1.55H27.04a.775.775,0,0,1,0,1.55Z" transform="translate(0 -334.7)"/>
      </g>
      <g id="Grupo_1177640" data-name="Grupo 1177640" transform="translate(0 32.2)">
        <path id="Trazado_1037077" data-name="Trazado 1037077" d="M20.127,65.454A13.127,13.127,0,1,0,7,52.327,13.155,13.155,0,0,0,20.127,65.454Z" transform="translate(-6.225 -38.425)" fill="#ffda2d" fill-rule="evenodd"/>
        <path id="Trazado_1037078" data-name="Trazado 1037078" d="M13.9,60A13.9,13.9,0,1,1,27.8,46.1,13.918,13.918,0,0,1,13.9,60Zm0-26.254A12.352,12.352,0,1,0,26.265,46.1,12.371,12.371,0,0,0,13.9,33.75Z" transform="translate(0 -32.2)"/>
      </g>
      <g id="Grupo_1177641" data-name="Grupo 1177641" transform="translate(3.332 35.532)">
        <path id="Trazado_1037079" data-name="Trazado 1037079" d="M46.9,88.891a9.8,9.8,0,1,0-9.8-9.8A9.8,9.8,0,0,0,46.9,88.891Z" transform="translate(-36.325 -68.525)" fill="#fdbf00" fill-rule="evenodd"/>
        <path id="Trazado_1037080" data-name="Trazado 1037080" d="M40.67,83.44A10.57,10.57,0,1,1,51.229,72.87,10.583,10.583,0,0,1,40.67,83.44Zm0-19.591A9.021,9.021,0,1,0,49.68,72.87,9.029,9.029,0,0,0,40.67,63.85Z" transform="translate(-30.1 -62.3)"/>
      </g>
      <g id="Grupo_1177642" data-name="Grupo 1177642" transform="translate(31.921 34.189)">
        <path id="Trazado_1037081" data-name="Trazado 1037081" d="M295.3,70.205h11.965V66.818H301.9l6.574-6.574L305.427,57.2,298.7,63.929V58.572h-3.4Z" transform="translate(-294.536 -56.422)" fill="#559b38" fill-rule="evenodd"/>
        <path id="Trazado_1037082" data-name="Trazado 1037082" d="M301.128,64.732H289.175a.77.77,0,0,1-.775-.775V52.325a.77.77,0,0,1,.775-.775h3.387a.77.77,0,0,1,.775.775v3.486l5.412-5.412a.782.782,0,0,1,1.1,0l3.055,3.044a.788.788,0,0,1,.232.553.762.762,0,0,1-.232.553L297.653,59.8h3.486a.77.77,0,0,1,.775.775v3.387A.794.794,0,0,1,301.128,64.732Zm-11.19-1.55h10.4V61.346H295.76a.786.786,0,0,1-.719-.476.767.767,0,0,1,.166-.841l6.021-6.021-1.948-1.948L293.1,58.235a.772.772,0,0,1-1.317-.553V53.1H289.95V63.183Z" transform="translate(-288.4 -50.175)"/>
      </g>
      <g id="Grupo_1177643" data-name="Grupo 1177643" transform="translate(28.866 53.927)">
        <path id="Trazado_1037083" data-name="Trazado 1037083" d="M280.927,261.765A13.132,13.132,0,1,0,267.8,248.638,13.158,13.158,0,0,0,280.927,261.765Z" transform="translate(-267.025 -234.725)" fill="#ffda2d" fill-rule="evenodd"/>
        <path id="Trazado_1037084" data-name="Trazado 1037084" d="M274.7,256.314a13.907,13.907,0,1,1,13.913-13.9A13.918,13.918,0,0,1,274.7,256.314Zm0-26.265a12.358,12.358,0,1,0,12.363,12.363A12.367,12.367,0,0,0,274.7,230.05Z" transform="translate(-260.8 -228.5)"/>
      </g>
      <g id="Grupo_1177644" data-name="Grupo 1177644" transform="translate(32.208 57.269)">
        <path id="Trazado_1037085" data-name="Trazado 1037085" d="M307.784,285.28A9.79,9.79,0,1,0,298,275.5,9.811,9.811,0,0,0,307.784,285.28Z" transform="translate(-297.225 -264.925)" fill="#fdbf00" fill-rule="evenodd"/>
        <path id="Trazado_1037086" data-name="Trazado 1037086" d="M301.559,279.829a10.565,10.565,0,1,1,10.57-10.559A10.572,10.572,0,0,1,301.559,279.829Zm0-19.58a9.015,9.015,0,1,0,9.021,9.021A9.02,9.02,0,0,0,301.559,260.25Z" transform="translate(-291 -258.7)"/>
      </g>
      <g id="Grupo_1177645" data-name="Grupo 1177645" transform="translate(39.292 61.663)">
        <path id="Trazado_1037087" data-name="Trazado 1037087" d="M358.475,310.741A3.481,3.481,0,0,1,355,307.266a.775.775,0,0,1,1.55,0,1.92,1.92,0,1,0,3.841,0c0-1.384-.642-1.594-2.1-1.937-1.395-.332-3.287-.786-3.287-3.453a3.475,3.475,0,0,1,6.951,0,.775.775,0,1,1-1.55,0,1.92,1.92,0,0,0-3.841,0c0,1.384.642,1.594,2.1,1.948,1.384.332,3.287.786,3.287,3.453A3.486,3.486,0,0,1,358.475,310.741Z" transform="translate(-355 -298.4)"/>
      </g>
      <g id="Grupo_1177646" data-name="Grupo 1177646" transform="translate(41.993 59.87)">
        <path id="Trazado_1037088" data-name="Trazado 1037088" d="M380.175,298.127a.77.77,0,0,1-.775-.775v-1.538a.775.775,0,1,1,1.55,0v1.538A.777.777,0,0,1,380.175,298.127Zm0-12.861a.77.77,0,0,1-.775-.775v-1.516a.775.775,0,0,1,1.55,0v1.516A.777.777,0,0,1,380.175,285.266Z" transform="translate(-379.4 -282.2)"/>
      </g>
      <g id="Grupo_1177647" data-name="Grupo 1177647" transform="translate(10.426 39.915)">
        <path id="Trazado_1037089" data-name="Trazado 1037089" d="M97.675,114.252a3.481,3.481,0,0,1-3.475-3.475.775.775,0,1,1,1.55,0,1.92,1.92,0,0,0,3.841,0c0-1.384-.642-1.594-2.1-1.948-1.384-.332-3.287-.786-3.287-3.453a3.475,3.475,0,0,1,6.951,0,.775.775,0,1,1-1.55,0,1.92,1.92,0,1,0-3.841,0c0,1.384.642,1.594,2.1,1.937,1.395.332,3.287.786,3.287,3.453A3.477,3.477,0,0,1,97.675,114.252Z" transform="translate(-94.2 -101.9)"/>
      </g>
      <g id="Grupo_1177648" data-name="Grupo 1177648" transform="translate(13.127 38.144)">
        <path id="Trazado_1037090" data-name="Trazado 1037090" d="M119.375,101.827a.77.77,0,0,1-.775-.775V99.525a.775.775,0,1,1,1.55,0v1.527A.77.77,0,0,1,119.375,101.827Zm0-12.872a.77.77,0,0,1-.775-.775V86.675a.775.775,0,1,1,1.55,0v1.516A.761.761,0,0,1,119.375,88.955Z" transform="translate(-118.6 -85.9)"/>
      </g>
    </g>
  </g>
</svg>
