<svg xmlns="http://www.w3.org/2000/svg" xmlns:xlink="http://www.w3.org/1999/xlink" width="113" height="113" viewBox="0 0 113 113">
  <defs>
    <filter id="Trazado_982547" x="0" y="0" width="113" height="113" filterUnits="userSpaceOnUse">
      <feOffset dy="3" input="SourceAlpha"/>
      <feGaussianBlur stdDeviation="3" result="blur"/>
      <feFlood flood-opacity="0.161"/>
      <feComposite operator="in" in2="blur"/>
      <feComposite in="SourceGraphic"/>
    </filter>
  </defs>
  <g id="Grupo_1177627" data-name="Grupo 1177627" transform="translate(-186.858 -1697.871)">
    <g id="Grupo_1177427" data-name="Grupo 1177427" transform="translate(-1126.578 -1350.438)">
      <g id="Grupo_1177182" data-name="Grupo 1177182" transform="translate(1322.436 3054.308)">
        <g id="Grupo_1176922" data-name="Grupo 1176922" transform="translate(0 0)">
          <g id="Grupo_1172322" data-name="Grupo 1172322" transform="translate(0)">
            <g id="Grupo_1164700" data-name="Grupo 1164700">
              <g id="Grupo_1160931" data-name="Grupo 1160931">
                <g id="Grupo_1160749" data-name="Grupo 1160749">
                  <g id="Grupo_1158891" data-name="Grupo 1158891">
                    <g id="Grupo_1157406" data-name="Grupo 1157406">
                      <g id="Grupo_1155793" data-name="Grupo 1155793">
                        <g id="Grupo_1154704" data-name="Grupo 1154704">
                          <g id="Grupo_1150790" data-name="Grupo 1150790">
                            <g id="Grupo_1154214" data-name="Grupo 1154214">
                              <g id="Grupo_1152583" data-name="Grupo 1152583">
                                <g id="Grupo_1146973" data-name="Grupo 1146973">
                                  <g id="Grupo_1146954" data-name="Grupo 1146954">
                                    <g transform="matrix(1, 0, 0, 1, -9, -6)" filter="url(#Trazado_982547)">
                                      <g id="Trazado_982547-2" data-name="Trazado 982547" transform="translate(9 6)" fill="#fbf8f2">
                                        <path d="M 47.50000762939453 93.49986267089844 C 41.28937911987305 93.49986267089844 35.26534271240234 92.28383636474609 29.59519386291504 89.88558197021484 C 24.11772727966309 87.56880950927734 19.19814109802246 84.25183868408203 14.97310066223145 80.02679443359375 C 10.74804782867432 75.8017578125 7.431074142456055 70.88218688964844 5.114300727844238 65.40471649169922 C 2.716034412384033 59.73458480834961 1.500007629394531 53.71054458618164 1.500007629394531 47.49993133544922 C 1.500007629394531 41.2893180847168 2.716034412384033 35.26527786254883 5.114300727844238 29.59514427185059 C 7.431074142456055 24.11769104003906 10.74804782867432 19.19810485839844 14.97310066223145 14.97306442260742 C 19.19814109802246 10.74803829193115 24.11772727966309 7.431051254272461 29.59519386291504 5.114291191101074 C 35.26534271240234 2.71602463722229 41.28937911987305 1.499997973442078 47.50000762939453 1.499997973442078 C 53.71063613891602 1.499997973442078 59.73468780517578 2.71602463722229 65.40482330322266 5.114291191101074 C 70.88230133056641 7.431051254272461 75.80187225341797 10.74803829193115 80.02692413330078 14.97306442260742 C 84.25196838378906 19.19810485839844 87.56893920898438 24.11769104003906 89.88571166992188 29.59514427185059 C 92.28398132324219 35.26527786254883 93.50000762939453 41.2893180847168 93.50000762939453 47.49993133544922 C 93.50000762939453 53.71054458618164 92.28398132324219 59.73458480834961 89.88571166992188 65.40471649169922 C 87.56893920898438 70.88218688964844 84.25196838378906 75.8017578125 80.02692413330078 80.02679443359375 C 75.80187225341797 84.25183868408203 70.88230133056641 87.56880950927734 65.40482330322266 89.88558197021484 C 59.73468780517578 92.28383636474609 53.71063613891602 93.49986267089844 47.50000762939453 93.49986267089844 Z" stroke="none"/>
                                        <path d="M 47.50000762939453 2.999992370605469 C 41.4912223815918 2.999992370605469 35.66377639770508 4.1761474609375 30.17951202392578 6.495796203613281 C 24.88085174560547 8.736930847167969 20.12152862548828 11.94596099853516 16.03376007080078 16.03372955322266 C 11.94599151611328 20.12149810791016 8.736961364746094 24.88080596923828 6.495803833007812 30.17946624755859 C 4.176162719726562 35.66371536254883 3.000007629394531 41.49116134643555 3.000007629394531 47.49993133544922 C 3.000007629394531 53.50870132446289 4.176162719726562 59.33614730834961 6.495803833007812 64.82038879394531 C 8.736961364746094 70.11905670166016 11.94597625732422 74.87836456298828 16.03376007080078 78.96613311767578 C 20.12152862548828 83.05390167236328 24.88085174560547 86.26291656494141 30.17951202392578 88.50406646728516 C 35.66377639770508 90.82369995117188 41.4912223815918 91.99985504150391 47.50000762939453 91.99985504150391 C 53.50879287719727 91.99985504150391 59.33623886108398 90.82369995117188 64.82049560546875 88.50406646728516 C 70.11916351318359 86.26291656494141 74.87848663330078 83.05390167236328 78.96625518798828 78.96613311767578 C 83.05403900146484 74.87836456298828 86.26305389404297 70.11905670166016 88.50421142578125 64.82038879394531 C 90.8238525390625 59.33614730834961 92.00000762939453 53.50870132446289 92.00000762939453 47.49993133544922 C 92.00000762939453 41.49116134643555 90.8238525390625 35.66371536254883 88.50421142578125 30.17946624755859 C 86.26305389404297 24.88080596923828 83.05402374267578 20.12149810791016 78.96625518798828 16.03372955322266 C 74.87848663330078 11.94596099853516 70.11916351318359 8.736930847167969 64.82049560546875 6.495796203613281 C 59.33623886108398 4.1761474609375 53.50879287719727 2.999992370605469 47.50000762939453 2.999992370605469 M 47.50000762939453 -7.62939453125e-06 C 73.73352813720703 -7.62939453125e-06 95.00000762939453 21.26645660400391 95.00000762939453 47.49993133544922 C 95.00000762939453 73.73342132568359 73.73352813720703 94.99985504150391 47.50000762939453 94.99985504150391 C 21.26648712158203 94.99985504150391 7.62939453125e-06 73.73342132568359 7.62939453125e-06 47.49993133544922 C 7.62939453125e-06 21.26645660400391 21.26648712158203 -7.62939453125e-06 47.50000762939453 -7.62939453125e-06 Z" stroke="none" fill="#2777df"/>
                                      </g>
                                    </g>
                                  </g>
                                </g>
                              </g>
                            </g>
                          </g>
                        </g>
                      </g>
                    </g>
                  </g>
                </g>
              </g>
            </g>
          </g>
        </g>
      </g>
    </g>
    <g id="target_18517780" transform="translate(211.841 1701.199)">
      <g id="Grupo_1177626" data-name="Grupo 1177626" transform="translate(1.899 23.088)">
        <g id="Grupo_1177623" data-name="Grupo 1177623" transform="translate(0 0)">
          <path id="Trazado_1037045" data-name="Trazado 1037045" d="M49.676,34.953,54.022,39.3a1.487,1.487,0,0,1,0,2.1l-.693.693a4.942,4.942,0,0,0,3.495,8.437h.98a1.487,1.487,0,0,1,1.483,1.483v6.146A1.487,1.487,0,0,1,57.8,59.636h-.98a4.942,4.942,0,0,0-3.495,8.437l.693.693a1.487,1.487,0,0,1,0,2.1l-4.346,4.346a1.487,1.487,0,0,1-2.1,0l-.693-.693a4.942,4.942,0,0,0-8.437,3.495v.98a1.487,1.487,0,0,1-1.483,1.483H30.821a1.487,1.487,0,0,1-1.483-1.483v-.98A4.942,4.942,0,0,0,20.9,74.516l-.693.693a1.487,1.487,0,0,1-2.1,0l-4.346-4.346a1.487,1.487,0,0,1,0-2.1l.693-.693a4.942,4.942,0,0,0-3.495-8.437H9.984A1.487,1.487,0,0,1,8.5,58.153V52.008a1.487,1.487,0,0,1,1.483-1.483h.98a4.942,4.942,0,0,0,3.495-8.437l-.693-.693a1.487,1.487,0,0,1,0-2.1l4.346-4.346a1.487,1.487,0,0,1,2.1,0l.693.693a4.942,4.942,0,0,0,8.437-3.495v-.98a1.487,1.487,0,0,1,1.483-1.483h6.146a1.487,1.487,0,0,1,1.483,1.483v.98a4.942,4.942,0,0,0,8.437,3.495l.693-.693A1.487,1.487,0,0,1,49.676,34.953Z" transform="translate(-8.501 -29.688)" fill="#3b3b6b" fill-rule="evenodd"/>
          <path id="Trazado_1037046" data-name="Trazado 1037046" d="M131.921,34.951l4.346,4.346a1.487,1.487,0,0,1,0,2.1l-.693.693a4.942,4.942,0,0,0,3.495,8.437h.98a1.487,1.487,0,0,1,1.483,1.483v6.146a1.487,1.487,0,0,1-1.483,1.483h-.98a4.948,4.948,0,0,0-4.136,7.658h-.116a32.892,32.892,0,0,1-32.891-32.682,1.468,1.468,0,0,1,.526.339l.693.693a4.942,4.942,0,0,0,8.437-3.495v-.98a1.487,1.487,0,0,1,1.483-1.483h6.146a1.487,1.487,0,0,1,1.483,1.483v.98a4.942,4.942,0,0,0,8.437,3.495l.693-.693a1.487,1.487,0,0,1,2.1,0Z" transform="translate(-90.746 -29.686)" fill="#45467e" fill-rule="evenodd"/>
          <circle id="Elipse_12478" data-name="Elipse 12478" cx="12.549" cy="12.549" r="12.549" transform="translate(7.643 25.393) rotate(-45)" fill="#eb4e5c"/>
          <path id="Trazado_1037047" data-name="Trazado 1037047" d="M147.92,159.76a33,33,0,0,1-18.2-16.445,12.55,12.55,0,1,1,18.2,16.445Z" transform="translate(-115.213 -124.169)" fill="#ff6372" fill-rule="evenodd"/>
        </g>
        <g id="Grupo_1177624" data-name="Grupo 1177624" transform="translate(30.03 24.916)">
          <circle id="Elipse_12479" data-name="Elipse 12479" cx="14.387" cy="14.387" r="14.387" transform="translate(0 28.774) rotate(-88.224)" fill="#ffc328"/>
          <path id="Trazado_1037048" data-name="Trazado 1037048" d="M331.421,241.872a14.4,14.4,0,0,1,13.4,19.647,16.433,16.433,0,0,1-20.331-17.866A14.321,14.321,0,0,1,331.421,241.872Z" transform="translate(-316.6 -241.395)" fill="#ffd54f" fill-rule="evenodd"/>
          <circle id="Elipse_12480" data-name="Elipse 12480" cx="10.084" cy="10.084" r="10.084" transform="translate(0.552 14.864) rotate(-45)" fill="#ffa200"/>
          <path id="Trazado_1037049" data-name="Trazado 1037049" d="M333.684,277.825a10.085,10.085,0,0,1,8.306,15.8,16.435,16.435,0,0,1-15.049-13.218A10.047,10.047,0,0,1,333.684,277.825Z" transform="translate(-318.862 -273.045)" fill="#ffb700" fill-rule="evenodd"/>
        </g>
        <g id="Grupo_1177625" data-name="Grupo 1177625" transform="translate(14.444 16.42)">
          <path id="Trazado_1037050" data-name="Trazado 1037050" d="M139.047,178.59a1.846,1.846,0,1,1,1.846-1.846A1.846,1.846,0,0,1,139.047,178.59Zm.9,7.1v-1.369a7.636,7.636,0,0,0,6.683-6.683H148a.9.9,0,0,0,0-1.8h-1.369a7.636,7.636,0,0,0-6.683-6.683v-1.369a.9.9,0,0,0-1.8,0v1.369a7.636,7.636,0,0,0-6.683,6.683H130.1a.9.9,0,1,0,0,1.8h1.369a7.636,7.636,0,0,0,6.683,6.683v1.369a.9.9,0,0,0,1.8,0Zm-1.8-3.18v-1.248a.9.9,0,0,1,1.8,0v1.248a5.841,5.841,0,0,0,4.871-4.871h-1.248a.9.9,0,0,1,0-1.8h1.248a5.841,5.841,0,0,0-4.871-4.871v1.248a.9.9,0,0,1-1.8,0v-1.248a5.841,5.841,0,0,0-4.871,4.871h1.248a.9.9,0,1,1,0,1.8h-1.248a5.841,5.841,0,0,0,4.871,4.871Z" transform="translate(-129.2 -166.897)" fill="#d83946" fill-rule="evenodd"/>
          <path id="Trazado_1037051" data-name="Trazado 1037051" d="M158.862,178.59a1.846,1.846,0,1,1,1.846-1.846A1.846,1.846,0,0,1,158.862,178.59Zm3.267,5.054a7.645,7.645,0,0,0,4.314-6h1.369a.9.9,0,1,0,0-1.8h-1.369a7.636,7.636,0,0,0-6.683-6.683v-1.369a.9.9,0,0,0-1.8,0v1.369a7.642,7.642,0,0,0-6.255,4.912,33.073,33.073,0,0,0,2.866,3.535.9.9,0,0,0-.233-1.764h-1.248a5.841,5.841,0,0,1,4.871-4.871v1.248a.9.9,0,0,0,1.8,0v-1.248a5.841,5.841,0,0,1,4.871,4.871h-1.248a.9.9,0,0,0,0,1.8h1.248a5.843,5.843,0,0,1-4.435,4.787Q161.139,183.068,162.128,183.643Zm-2.369-1.517q-.869-.61-1.7-1.273a.9.9,0,0,1,1.7.412v.862Z" transform="translate(-149.015 -166.897)" fill="#eb4e5c" fill-rule="evenodd"/>
          <path id="Trazado_1037052" data-name="Trazado 1037052" d="M207.1,230.139a1.846,1.846,0,1,0-1.846-1.846A1.85,1.85,0,0,0,207.1,230.139Z" transform="translate(-196.155 -219.32)" fill="#ffd54f" fill-rule="evenodd"/>
        </g>
      </g>
      <path id="Trazado_1037053" data-name="Trazado 1037053" d="M27.291,49.43a.949.949,0,1,1,.949-.948A.949.949,0,0,1,27.291,49.43Zm0-3.692a2.744,2.744,0,1,0,2.744,2.744A2.745,2.745,0,0,0,27.291,45.738Zm.9,8.512a5.85,5.85,0,0,0,4.871-4.872H31.812a.9.9,0,0,1,0-1.8h1.247a5.85,5.85,0,0,0-4.871-4.87v1.248a.9.9,0,0,1-1.8,0V42.712a5.852,5.852,0,0,0-4.87,4.87h1.248a.9.9,0,0,1,0,1.8H21.522a5.852,5.852,0,0,0,4.87,4.872V53a.9.9,0,0,1,1.8,0V54.25Zm6.681-4.872h1.37a.9.9,0,1,0,0-1.8h-1.37a7.645,7.645,0,0,0-6.681-6.68V39.532a.9.9,0,1,0-1.8,0V40.9a7.645,7.645,0,0,0-6.68,6.68H18.342a.9.9,0,1,0,0,1.8h1.371a7.645,7.645,0,0,0,6.68,6.681V57.43a.9.9,0,0,0,1.8,0V56.059A7.645,7.645,0,0,0,34.869,49.378Zm15.45,15.934a3.347,3.347,0,0,1-2.672,3.274v.826a.9.9,0,1,1-1.8,0v-.88a3.348,3.348,0,0,1-2.444-3.219.9.9,0,1,1,1.8,0,1.548,1.548,0,0,0,1.546,1.547h.229a1.547,1.547,0,0,0,0-3.093h-.456a3.342,3.342,0,0,1-.67-6.616v-.825a.9.9,0,0,1,1.8,0v.88a3.347,3.347,0,0,1,2.444,3.219.9.9,0,1,1-1.8,0,1.547,1.547,0,0,0-1.546-1.546h-.228a1.546,1.546,0,1,0,0,3.092h.456a3.346,3.346,0,0,1,3.342,3.342Zm-3.57,6.743a9.187,9.187,0,1,0-9.186-9.188A9.2,9.2,0,0,0,46.749,72.055Zm0-20.169A10.982,10.982,0,1,1,35.768,62.867,10.994,10.994,0,0,1,46.749,51.886Zm0,24.471a13.49,13.49,0,1,1,13.49-13.49A13.506,13.506,0,0,1,46.749,76.357ZM31.917,59.178a15.338,15.338,0,0,1,6.954-9.4,11.8,11.8,0,0,0,.072-1.295,11.644,11.644,0,1,0-7.026,10.7Zm-.968,12.233a5.787,5.787,0,0,1,1.3-3.7,15.235,15.235,0,0,1-.787-4.841,15.417,15.417,0,0,1,.087-1.63,13.448,13.448,0,1,1,9.186-12.757c0,.112,0,.226-.007.339a15.264,15.264,0,0,1,11.055-.382V45.408a.593.593,0,0,0-.585-.585h-.98a5.84,5.84,0,0,1-4.13-9.97l.693-.693a.589.589,0,0,0,0-.827l-4.347-4.347a.594.594,0,0,0-.827,0l-.694.694a5.839,5.839,0,0,1-9.969-4.13v-.98a.593.593,0,0,0-.585-.585H24.219a.593.593,0,0,0-.586.585v.98a5.841,5.841,0,0,1-9.97,4.13l-.693-.694a.594.594,0,0,0-.827,0L7.8,33.334a.591.591,0,0,0,0,.827l.694.693a5.753,5.753,0,0,1,1.266,6.364,5.753,5.753,0,0,1-5.4,3.606h-.98a.593.593,0,0,0-.585.585v6.145a.593.593,0,0,0,.585.586h.98a5.752,5.752,0,0,1,5.4,3.6,5.752,5.752,0,0,1-1.266,6.364L7.8,62.8a.591.591,0,0,0,0,.827l4.347,4.345a.591.591,0,0,0,.827,0l.694-.693a5.839,5.839,0,0,1,9.969,4.13v.98a.593.593,0,0,0,.586.585h6.145a.593.593,0,0,0,.585-.585ZM53.581,49.2v-3.79a2.382,2.382,0,0,0-2.38-2.38h-.98a4.045,4.045,0,0,1-2.86-6.905l.693-.693a2.385,2.385,0,0,0,0-3.366l-4.345-4.345a2.383,2.383,0,0,0-3.366,0l-.693.692a4.045,4.045,0,0,1-6.905-2.86v-.98a2.382,2.382,0,0,0-2.38-2.38H24.219a2.382,2.382,0,0,0-2.38,2.38v.98a4.045,4.045,0,0,1-6.905,2.86l-.693-.692a2.382,2.382,0,0,0-3.366,0L6.529,32.064a2.384,2.384,0,0,0,0,3.366l.692.693a4.045,4.045,0,0,1-2.86,6.905h-.98A2.382,2.382,0,0,0,1,45.408v6.145a2.382,2.382,0,0,0,2.38,2.38h.98a4.044,4.044,0,0,1,2.86,6.905l-.692.693a2.384,2.384,0,0,0,0,3.366l4.345,4.345a2.382,2.382,0,0,0,3.366,0l.693-.692a4.045,4.045,0,0,1,6.905,2.86v.98a2.382,2.382,0,0,0,2.38,2.38h6.145a2.382,2.382,0,0,0,2.38-2.38v-.98a4.117,4.117,0,0,1,.352-1.68A15.282,15.282,0,1,0,53.581,49.2Z" transform="translate(0 0)" fill-rule="evenodd"/>
    </g>
  </g>
</svg>
