<svg xmlns="http://www.w3.org/2000/svg" xmlns:xlink="http://www.w3.org/1999/xlink" width="113" height="113" viewBox="0 0 113 113">
  <defs>
    <filter id="Trazado_982547" x="0" y="0" width="113" height="113" filterUnits="userSpaceOnUse">
      <feOffset dy="3" input="SourceAlpha"/>
      <feGaussianBlur stdDeviation="3" result="blur"/>
      <feFlood flood-opacity="0.161"/>
      <feComposite operator="in" in2="blur"/>
      <feComposite in="SourceGraphic"/>
    </filter>
  </defs>
  <g id="Grupo_1177633" data-name="Grupo 1177633" transform="translate(-821 -1699)">
    <g id="Grupo_1177428" data-name="Grupo 1177428" transform="translate(-492.436 -1349.308)">
      <g id="Grupo_1177182" data-name="Grupo 1177182" transform="translate(1322.436 3054.308)">
        <g id="Grupo_1176922" data-name="Grupo 1176922" transform="translate(0 0)">
          <g id="Grupo_1172322" data-name="Grupo 1172322" transform="translate(0)">
            <g id="Grupo_1164700" data-name="Grupo 1164700">
              <g id="Grupo_1160931" data-name="Grupo 1160931">
                <g id="Grupo_1160749" data-name="Grupo 1160749">
                  <g id="Grupo_1158891" data-name="Grupo 1158891">
                    <g id="Grupo_1157406" data-name="Grupo 1157406">
                      <g id="Grupo_1155793" data-name="Grupo 1155793">
                        <g id="Grupo_1154704" data-name="Grupo 1154704">
                          <g id="Grupo_1150790" data-name="Grupo 1150790">
                            <g id="Grupo_1154214" data-name="Grupo 1154214">
                              <g id="Grupo_1152583" data-name="Grupo 1152583">
                                <g id="Grupo_1146973" data-name="Grupo 1146973">
                                  <g id="Grupo_1146954" data-name="Grupo 1146954">
                                    <g transform="matrix(1, 0, 0, 1, -9, -6)" filter="url(#Trazado_982547)">
                                      <g id="Trazado_982547-2" data-name="Trazado 982547" transform="translate(9 6)" fill="#fbf8f2">
                                        <path d="M 47.50000762939453 93.49986267089844 C 41.28937911987305 93.49986267089844 35.26534271240234 92.28383636474609 29.59519386291504 89.88558197021484 C 24.11772727966309 87.56880950927734 19.19814109802246 84.25183868408203 14.97310066223145 80.02679443359375 C 10.74804782867432 75.8017578125 7.431074142456055 70.88218688964844 5.114300727844238 65.40471649169922 C 2.716034412384033 59.73458480834961 1.500007629394531 53.71054458618164 1.500007629394531 47.49993133544922 C 1.500007629394531 41.2893180847168 2.716034412384033 35.26527786254883 5.114300727844238 29.59514427185059 C 7.431074142456055 24.11769104003906 10.74804782867432 19.19810485839844 14.97310066223145 14.97306442260742 C 19.19814109802246 10.74803829193115 24.11772727966309 7.431051254272461 29.59519386291504 5.114291191101074 C 35.26534271240234 2.71602463722229 41.28937911987305 1.499997973442078 47.50000762939453 1.499997973442078 C 53.71063613891602 1.499997973442078 59.73468780517578 2.71602463722229 65.40482330322266 5.114291191101074 C 70.88230133056641 7.431051254272461 75.80187225341797 10.74803829193115 80.02692413330078 14.97306442260742 C 84.25196838378906 19.19810485839844 87.56893920898438 24.11769104003906 89.88571166992188 29.59514427185059 C 92.28398132324219 35.26527786254883 93.50000762939453 41.2893180847168 93.50000762939453 47.49993133544922 C 93.50000762939453 53.71054458618164 92.28398132324219 59.73458480834961 89.88571166992188 65.40471649169922 C 87.56893920898438 70.88218688964844 84.25196838378906 75.8017578125 80.02692413330078 80.02679443359375 C 75.80187225341797 84.25183868408203 70.88230133056641 87.56880950927734 65.40482330322266 89.88558197021484 C 59.73468780517578 92.28383636474609 53.71063613891602 93.49986267089844 47.50000762939453 93.49986267089844 Z" stroke="none"/>
                                        <path d="M 47.50000762939453 2.999992370605469 C 41.4912223815918 2.999992370605469 35.66377639770508 4.1761474609375 30.17951202392578 6.495796203613281 C 24.88085174560547 8.736930847167969 20.12152862548828 11.94596099853516 16.03376007080078 16.03372955322266 C 11.94599151611328 20.12149810791016 8.736961364746094 24.88080596923828 6.495803833007812 30.17946624755859 C 4.176162719726562 35.66371536254883 3.000007629394531 41.49116134643555 3.000007629394531 47.49993133544922 C 3.000007629394531 53.50870132446289 4.176162719726562 59.33614730834961 6.495803833007812 64.82038879394531 C 8.736961364746094 70.11905670166016 11.94597625732422 74.87836456298828 16.03376007080078 78.96613311767578 C 20.12152862548828 83.05390167236328 24.88085174560547 86.26291656494141 30.17951202392578 88.50406646728516 C 35.66377639770508 90.82369995117188 41.4912223815918 91.99985504150391 47.50000762939453 91.99985504150391 C 53.50879287719727 91.99985504150391 59.33623886108398 90.82369995117188 64.82049560546875 88.50406646728516 C 70.11916351318359 86.26291656494141 74.87848663330078 83.05390167236328 78.96625518798828 78.96613311767578 C 83.05403900146484 74.87836456298828 86.26305389404297 70.11905670166016 88.50421142578125 64.82038879394531 C 90.8238525390625 59.33614730834961 92.00000762939453 53.50870132446289 92.00000762939453 47.49993133544922 C 92.00000762939453 41.49116134643555 90.8238525390625 35.66371536254883 88.50421142578125 30.17946624755859 C 86.26305389404297 24.88080596923828 83.05402374267578 20.12149810791016 78.96625518798828 16.03372955322266 C 74.87848663330078 11.94596099853516 70.11916351318359 8.736930847167969 64.82049560546875 6.495796203613281 C 59.33623886108398 4.1761474609375 53.50879287719727 2.999992370605469 47.50000762939453 2.999992370605469 M 47.50000762939453 -7.62939453125e-06 C 73.73352813720703 -7.62939453125e-06 95.00000762939453 21.26645660400391 95.00000762939453 47.49993133544922 C 95.00000762939453 73.73342132568359 73.73352813720703 94.99985504150391 47.50000762939453 94.99985504150391 C 21.26648712158203 94.99985504150391 7.62939453125e-06 73.73342132568359 7.62939453125e-06 47.49993133544922 C 7.62939453125e-06 21.26645660400391 21.26648712158203 -7.62939453125e-06 47.50000762939453 -7.62939453125e-06 Z" stroke="none" fill="#2777df"/>
                                      </g>
                                    </g>
                                  </g>
                                </g>
                              </g>
                            </g>
                          </g>
                        </g>
                      </g>
                    </g>
                  </g>
                </g>
              </g>
            </g>
          </g>
        </g>
      </g>
    </g>
    <g id="dollar_2500102" transform="translate(847.379 1723.788)">
      <g id="Grupo_1177631" data-name="Grupo 1177631" transform="translate(0.885 0.882)">
        <path id="Trazado_1037054" data-name="Trazado 1037054" d="M29.633,35.382a13.3,13.3,0,0,0,1.45-.969,1.76,1.76,0,0,1,1.789-.21l1.095.488a1.765,1.765,0,0,0,2.247-.73L38.3,30.345a1.765,1.765,0,0,0-.492-2.311l-.971-.7a1.76,1.76,0,0,1-.713-1.656,13.2,13.2,0,0,0,0-3.481,1.758,1.758,0,0,1,.713-1.652l.969-.7a1.765,1.765,0,0,0,.492-2.311l-2.088-3.617a1.765,1.765,0,0,0-2.247-.73l-1.093.487a1.758,1.758,0,0,1-1.787-.208,13.206,13.206,0,0,0-3.016-1.739,1.76,1.76,0,0,1-1.078-1.445l-.125-1.193A1.765,1.765,0,0,0,25.112,7.5H20.936A1.765,1.765,0,0,0,19.18,9.081l-.125,1.192a1.76,1.76,0,0,1-1.076,1.444,13.328,13.328,0,0,0-3.015,1.74,1.76,1.76,0,0,1-1.789.21l-1.095-.488a1.765,1.765,0,0,0-2.247.73L7.746,17.526a1.765,1.765,0,0,0,.492,2.311l.971.7A1.76,1.76,0,0,1,9.921,22.2a13.2,13.2,0,0,0,0,3.481,1.758,1.758,0,0,1-.713,1.652l-.969.7a1.765,1.765,0,0,0-.492,2.311l2.088,3.617a1.765,1.765,0,0,0,2.247.73l1.093-.487a1.758,1.758,0,0,1,1.787.208,13.206,13.206,0,0,0,3.016,1.739A1.76,1.76,0,0,1,19.055,37.6l.125,1.193a1.765,1.765,0,0,0,1.756,1.581h4.176a1.765,1.765,0,0,0,1.756-1.581l.125-1.192a1.761,1.761,0,0,1,1.076-1.444,13.3,13.3,0,0,0,1.564-.771Z" transform="translate(-7.51 -7.5)" fill="#665e66"/>
        <g id="Grupo_1177628" data-name="Grupo 1177628" transform="translate(0 0)">
          <path id="Trazado_1037055" data-name="Trazado 1037055" d="M9.346,58.971a1.765,1.765,0,0,0,.492,2.311l.971.7a1.759,1.759,0,0,1,.712,1.656,13.148,13.148,0,0,0,0,3.481,1.76,1.76,0,0,1-.713,1.652l-.969.7a1.764,1.764,0,0,0-.492,2.31l2.088,3.617a1.754,1.754,0,0,0,.731.692l-.084.037a1.766,1.766,0,0,1-2.247-.729L7.747,71.789a1.764,1.764,0,0,1,.492-2.31l.968-.7a1.757,1.757,0,0,0,.713-1.652,13.2,13.2,0,0,1,0-3.481,1.763,1.763,0,0,0-.713-1.656l-.97-.7a1.765,1.765,0,0,1-.492-2.311l2.087-3.616a1.766,1.766,0,0,1,2.247-.73l.086.039a1.749,1.749,0,0,0-.733.692Z" transform="translate(-7.51 -48.945)" fill="#454045"/>
          <path id="Trazado_1037056" data-name="Trazado 1037056" d="M76.38,239.491h-1.6a1.767,1.767,0,0,1-1.756-1.582l-.124-1.193a1.762,1.762,0,0,0-1.079-1.445,13.172,13.172,0,0,1-3.015-1.739,1.749,1.749,0,0,0-.272-.171l.084-.037a1.758,1.758,0,0,1,1.787.208,13.18,13.18,0,0,0,3.016,1.739,1.761,1.761,0,0,1,1.077,1.445l.125,1.193a1.766,1.766,0,0,0,1.756,1.582Z" transform="translate(-61.354 -206.62)" fill="#454045"/>
          <path id="Trazado_1037057" data-name="Trazado 1037057" d="M74.79,7.5h1.6a1.765,1.765,0,0,0-1.756,1.581l-.125,1.193a1.762,1.762,0,0,1-1.076,1.444,13.311,13.311,0,0,0-3.014,1.74,1.76,1.76,0,0,1-1.789.21l-.084-.037a1.76,1.76,0,0,0,.274-.172,13.412,13.412,0,0,1,1.451-.969,13.159,13.159,0,0,1,1.564-.771,1.762,1.762,0,0,0,1.076-1.444l.124-1.193A1.766,1.766,0,0,1,74.79,7.5Z" transform="translate(-61.365 -7.5)" fill="#454045"/>
        </g>
        <circle id="Elipse_12481" data-name="Elipse 12481" cx="8.945" cy="8.945" r="8.945" transform="translate(6.57 7.491)" fill="#665e66"/>
        <circle id="Elipse_12482" data-name="Elipse 12482" cx="8.945" cy="8.945" r="8.945" transform="translate(6.57 7.491)" fill="#454045"/>
        <g id="Grupo_1177630" data-name="Grupo 1177630" transform="translate(8.333 11.143)">
          <path id="Trazado_1037058" data-name="Trazado 1037058" d="M120.873,115.8a20.292,20.292,0,0,0-1.478-2.212,2.685,2.685,0,0,1-.32-2.728l.744-1.67a2.692,2.692,0,0,0-1.113-3.428l-5.517-3.185a2.692,2.692,0,0,0-3.525.75l-1.075,1.481a2.685,2.685,0,0,1-2.526,1.087,20.141,20.141,0,0,0-5.31,0,2.682,2.682,0,0,1-2.519-1.088l-1.073-1.477a2.692,2.692,0,0,0-3.525-.75l-5.517,3.185a2.692,2.692,0,0,0-1.113,3.428l.743,1.668a2.682,2.682,0,0,1-.318,2.726,20.141,20.141,0,0,0-2.653,4.6,2.685,2.685,0,0,1-2.2,1.644l-1.82.191a2.692,2.692,0,0,0-2.412,2.678v6.37a2.692,2.692,0,0,0,2.412,2.678l1.819.191a2.685,2.685,0,0,1,2.2,1.641,20.332,20.332,0,0,0,2.655,4.6,2.685,2.685,0,0,1,.32,2.728l-.744,1.67A2.692,2.692,0,0,0,88.12,146l5.517,3.185a2.692,2.692,0,0,0,3.525-.75l1.075-1.481a2.685,2.685,0,0,1,2.526-1.087,20.14,20.14,0,0,0,5.31,0,2.682,2.682,0,0,1,2.519,1.088l1.073,1.477a2.692,2.692,0,0,0,3.525.75L118.706,146a2.692,2.692,0,0,0,1.113-3.428l-.743-1.668a2.682,2.682,0,0,1,.318-2.726,20.141,20.141,0,0,0,2.653-4.6,2.685,2.685,0,0,1,2.2-1.644l1.82-.191a2.692,2.692,0,0,0,2.412-2.678V122.7a2.692,2.692,0,0,0-2.412-2.678l-1.819-.191a2.685,2.685,0,0,1-2.2-1.641A20.307,20.307,0,0,0,120.873,115.8Z" transform="translate(-78.343 -102.218)" fill="#f6f1f1"/>
          <g id="Grupo_1177629" data-name="Grupo 1177629">
            <path id="Trazado_1037059" data-name="Trazado 1037059" d="M89.726,109.184l.744,1.669a2.684,2.684,0,0,1-.317,2.725,20.116,20.116,0,0,0-2.653,4.6,2.688,2.688,0,0,1-2.2,1.645l-1.821.189a2.694,2.694,0,0,0-2.411,2.679v6.37a2.691,2.691,0,0,0,2.411,2.677l1.819.191a2.681,2.681,0,0,1,2.2,1.641,20.447,20.447,0,0,0,2.655,4.6,2.684,2.684,0,0,1,.321,2.727l-.746,1.67a2.694,2.694,0,0,0,1.114,3.428l5.5,3.177a2.691,2.691,0,0,1-2.708.008l-5.517-3.186A2.692,2.692,0,0,1,87,142.566l.744-1.67a2.684,2.684,0,0,0-.319-2.727,20.446,20.446,0,0,1-2.655-4.6,2.684,2.684,0,0,0-2.2-1.641l-1.819-.191a2.691,2.691,0,0,1-2.411-2.677v-6.37a2.694,2.694,0,0,1,2.411-2.679l1.821-.189a2.691,2.691,0,0,0,2.2-1.645,20.172,20.172,0,0,1,2.652-4.6,2.681,2.681,0,0,0,.319-2.725L87,109.184a2.69,2.69,0,0,1,1.114-3.426l5.517-3.186a2.69,2.69,0,0,1,2.708.009l-5.5,3.177A2.692,2.692,0,0,0,89.726,109.184Z" transform="translate(-78.34 -102.21)" fill="#dfdfdf"/>
            <path id="Trazado_1037060" data-name="Trazado 1037060" d="M330.63,476.383l-.015.008a2.692,2.692,0,0,1-3.525-.751l-1.073-1.478a2.679,2.679,0,0,0-1.256-.949c.486-.027.974-.073,1.461-.138a2.683,2.683,0,0,1,2.52,1.087l1.072,1.478a2.679,2.679,0,0,0,.817.742Z" transform="translate(-295.768 -429.422)" fill="#dfdfdf"/>
            <path id="Trazado_1037061" data-name="Trazado 1037061" d="M326.2,105.891c-.481-.063-.967-.111-1.454-.138A2.694,2.694,0,0,0,326,104.8l1.075-1.481a2.694,2.694,0,0,1,3.525-.749l.015.009a2.7,2.7,0,0,0-.817.741l-1.075,1.481A2.679,2.679,0,0,1,326.2,105.891Z" transform="translate(-295.755 -102.213)" fill="#dfdfdf"/>
          </g>
          <circle id="Elipse_12483" data-name="Elipse 12483" cx="13.502" cy="13.502" r="13.502" transform="translate(11.568 10.164)" fill="#78d0b1"/>
        </g>
      </g>
      <g id="Grupo_1177632" data-name="Grupo 1177632" transform="translate(0.002 0)">
        <path id="Trazado_1037062" data-name="Trazado 1037062" d="M57.038,28.949l-1.818-.191a1.8,1.8,0,0,1-1.48-1.1c-.15-.364-.315-.732-.49-1.1a.882.882,0,1,0-1.589.767c.16.332.311.669.448,1a3.563,3.563,0,0,0,2.927,2.182l1.818.191a1.805,1.805,0,0,1,1.621,1.8v6.371a1.807,1.807,0,0,1-1.622,1.8l-1.82.191a3.566,3.566,0,0,0-2.928,2.185,19.213,19.213,0,0,1-2.535,4.4,3.558,3.558,0,0,0-.425,3.623l.743,1.668a1.805,1.805,0,0,1-.748,2.3l-5.516,3.185a1.807,1.807,0,0,1-2.369-.5l-1.073-1.478a3.561,3.561,0,0,0-3.35-1.444,19.293,19.293,0,0,1-5.078,0A3.561,3.561,0,0,0,28.4,56.244l-1.075,1.481a1.807,1.807,0,0,1-2.37.5l-5.516-3.185a1.805,1.805,0,0,1-.748-2.3l.743-1.669a3.563,3.563,0,0,0-.426-3.626,19.4,19.4,0,0,1-2.539-4.4,3.564,3.564,0,0,0-2.927-2.181l-1.818-.191a1.807,1.807,0,0,1-1.622-1.8V32.5a1.806,1.806,0,0,1,1.622-1.8l1.82-.191a3.562,3.562,0,0,0,2.927-2.185,19.257,19.257,0,0,1,2.537-4.4,3.559,3.559,0,0,0,.424-3.623l-.743-1.667a1.806,1.806,0,0,1,.749-2.3l5.516-3.185a1.806,1.806,0,0,1,2.369.5L28.4,15.132a3.561,3.561,0,0,0,3.35,1.444,19.211,19.211,0,0,1,5.078,0,3.561,3.561,0,0,0,3.355-1.444l1.075-1.481a1.807,1.807,0,0,1,2.37-.5l5.516,3.185a1.805,1.805,0,0,1,.748,2.3l-.743,1.669a3.564,3.564,0,0,0,.426,3.626c.216.281.432.58.641.888a.882.882,0,1,0,1.46-.992c-.228-.336-.465-.663-.7-.972a1.8,1.8,0,0,1-.214-1.833l.743-1.669a3.566,3.566,0,0,0-1.477-4.552l-5.516-3.185a3.568,3.568,0,0,0-4.68,1L38.751,14.1a1.8,1.8,0,0,1-1.694.731,20.964,20.964,0,0,0-5.543,0,1.786,1.786,0,0,1-.878-.106.891.891,0,0,1,.1-.085l.969-.7a2.644,2.644,0,0,0,.737-3.467L30.353,6.85a2.643,2.643,0,0,0-3.371-1.095l-1.091.487a.877.877,0,0,1-.892-.1,14.09,14.09,0,0,0-3.219-1.857.874.874,0,0,1-.535-.721L21.12,2.372A2.641,2.641,0,0,0,18.488,0H14.311A2.64,2.64,0,0,0,11.68,2.371l-.126,1.193a.877.877,0,0,1-.534.721,14.155,14.155,0,0,0-1.67.823A14.331,14.331,0,0,0,7.8,6.14a.877.877,0,0,1-.893.1L5.818,5.757A2.638,2.638,0,0,0,2.447,6.85L.358,10.466A2.645,2.645,0,0,0,1.1,13.933l.97.7a.877.877,0,0,1,.357.825,14.1,14.1,0,0,0,0,3.715.87.87,0,0,1-.355.82l-.97.7a2.642,2.642,0,0,0-.737,3.466l1.206,2.088a.882.882,0,1,0,1.528-.882L1.887,23.285a.881.881,0,0,1,.246-1.155l.969-.7a2.632,2.632,0,0,0,1.069-2.482,12.322,12.322,0,0,1,0-3.248A2.64,2.64,0,0,0,3.1,13.21l-.97-.7a.883.883,0,0,1-.247-1.157L3.976,7.733A.879.879,0,0,1,5.1,7.369l1.093.487A2.64,2.64,0,0,0,8.879,7.54a12.577,12.577,0,0,1,1.353-.905,12.369,12.369,0,0,1,1.461-.72,2.64,2.64,0,0,0,1.615-2.167l.126-1.193a.88.88,0,0,1,.877-.791h4.177a.881.881,0,0,1,.878.791l.126,1.192a2.636,2.636,0,0,0,1.618,2.169,12.317,12.317,0,0,1,2.814,1.623,2.641,2.641,0,0,0,2.685.315L27.7,7.368a.882.882,0,0,1,1.124.366l2.088,3.615a.883.883,0,0,1-.246,1.157l-.968.7a2.669,2.669,0,0,0-.32.277l-.628-.866a3.566,3.566,0,0,0-4.435-1.123A9.826,9.826,0,1,0,15.1,27.055q-.134.3-.26.6a1.8,1.8,0,0,1-1.479,1.1l-1.316.138a2.81,2.81,0,0,0-.354-.181A12.27,12.27,0,0,1,8.877,27.1a2.635,2.635,0,0,0-2.685-.317l-1.1.488a.867.867,0,0,1-.358.076.882.882,0,1,0,0,1.765,2.619,2.619,0,0,0,1.079-.23l1.093-.487a.872.872,0,0,1,.891.1,14.063,14.063,0,0,0,1.878,1.217,3.565,3.565,0,0,0-1.341,2.793v6.371a3.568,3.568,0,0,0,3.2,3.555l1.818.191a1.8,1.8,0,0,1,1.48,1.1,21.166,21.166,0,0,0,2.77,4.8,1.8,1.8,0,0,1,.214,1.833l-.743,1.669a3.566,3.566,0,0,0,1.477,4.552l5.516,3.185a3.567,3.567,0,0,0,4.68-1l1.076-1.481a1.8,1.8,0,0,1,1.695-.731,21.058,21.058,0,0,0,5.543,0,1.8,1.8,0,0,1,1.69.731l1.073,1.478a3.567,3.567,0,0,0,4.68.995l5.516-3.185A3.565,3.565,0,0,0,51.5,52.022l-.743-1.668a1.8,1.8,0,0,1,.211-1.829,20.972,20.972,0,0,0,2.768-4.8,1.8,1.8,0,0,1,1.481-1.1l1.82-.191a3.568,3.568,0,0,0,3.2-3.555V32.505a3.567,3.567,0,0,0-3.2-3.556ZM8.339,17.317A8.062,8.062,0,0,1,22.77,12.374l-4.215,2.433a3.567,3.567,0,0,0-1.478,4.551l.744,1.668a1.8,1.8,0,0,1-.211,1.829,20.98,20.98,0,0,0-1.656,2.511,8.071,8.071,0,0,1-7.614-8.049Z" transform="translate(-0.002 0)"/>
        <path id="Trazado_1037063" data-name="Trazado 1037063" d="M169.168,195.476a14.384,14.384,0,1,0,14.384-14.384A14.4,14.4,0,0,0,169.168,195.476Zm27,0a12.619,12.619,0,1,1-12.619-12.619A12.633,12.633,0,0,1,196.171,195.476Z" transform="translate(-149.265 -159.786)"/>
        <path id="Trazado_1037064" data-name="Trazado 1037064" d="M257.059,224.639v1.016c-.15.032-.3.07-.46.117a3.753,3.753,0,0,0-2.57,2.945,3.3,3.3,0,0,0,1.078,3.251,9.039,9.039,0,0,0,1.953,1.114v5.694a3.872,3.872,0,0,1-2.122-.779.882.882,0,0,0-.966,1.477,5.575,5.575,0,0,0,3.088,1.067V241.6a.882.882,0,0,0,1.765,0v-1.129a4.524,4.524,0,0,0,3.593-3.72,3.969,3.969,0,0,0-2.733-4.541c-.283-.1-.572-.2-.86-.314v-4.52a2.921,2.921,0,0,1,1.233.576.882.882,0,0,0,1.191-1.3,4.776,4.776,0,0,0-2.424-1.066v-.948a.882.882,0,0,0-1.765,0Zm2.037,9.238a2.23,2.23,0,0,1,1.581,2.585,2.794,2.794,0,0,1-1.853,2.19v-4.873Zm-2.9-3.3a1.557,1.557,0,0,1-.433-1.536,2.017,2.017,0,0,1,1.3-1.565v3.645A5.86,5.86,0,0,1,256.195,230.58Z" transform="translate(-223.738 -197.431)"/>
      </g>
    </g>
  </g>
</svg>
