<svg xmlns="http://www.w3.org/2000/svg" xmlns:xlink="http://www.w3.org/1999/xlink" width="113" height="113" viewBox="0 0 113 113">
  <defs>
    <filter id="Trazado_982547" x="0" y="0" width="113" height="113" filterUnits="userSpaceOnUse">
      <feOffset dy="3" input="SourceAlpha"/>
      <feGaussianBlur stdDeviation="3" result="blur"/>
      <feFlood flood-opacity="0.161"/>
      <feComposite operator="in" in2="blur"/>
      <feComposite in="SourceGraphic"/>
    </filter>
  </defs>
  <g id="Grupo_1177636" data-name="Grupo 1177636" transform="translate(-186.858 -3920.5)">
    <g id="Grupo_1177490" data-name="Grupo 1177490" transform="translate(-1126.578 872.192)">
      <g id="Grupo_1177182" data-name="Grupo 1177182" transform="translate(1322.436 3054.308)">
        <g id="Grupo_1176922" data-name="Grupo 1176922" transform="translate(0 0)">
          <g id="Grupo_1172322" data-name="Grupo 1172322" transform="translate(0)">
            <g id="Grupo_1164700" data-name="Grupo 1164700">
              <g id="Grupo_1160931" data-name="Grupo 1160931">
                <g id="Grupo_1160749" data-name="Grupo 1160749">
                  <g id="Grupo_1158891" data-name="Grupo 1158891">
                    <g id="Grupo_1157406" data-name="Grupo 1157406">
                      <g id="Grupo_1155793" data-name="Grupo 1155793">
                        <g id="Grupo_1154704" data-name="Grupo 1154704">
                          <g id="Grupo_1150790" data-name="Grupo 1150790">
                            <g id="Grupo_1154214" data-name="Grupo 1154214">
                              <g id="Grupo_1152583" data-name="Grupo 1152583">
                                <g id="Grupo_1146973" data-name="Grupo 1146973">
                                  <g id="Grupo_1146954" data-name="Grupo 1146954">
                                    <g transform="matrix(1, 0, 0, 1, -9, -6)" filter="url(#Trazado_982547)">
                                      <g id="Trazado_982547-2" data-name="Trazado 982547" transform="translate(9 6)" fill="#fbf8f2">
                                        <path d="M 47.50000762939453 93.49986267089844 C 41.28937911987305 93.49986267089844 35.26534271240234 92.28383636474609 29.59519386291504 89.88558197021484 C 24.11772727966309 87.56880950927734 19.19814109802246 84.25183868408203 14.97310066223145 80.02679443359375 C 10.74804782867432 75.8017578125 7.431074142456055 70.88218688964844 5.114300727844238 65.40471649169922 C 2.716034412384033 59.73458480834961 1.500007629394531 53.71054458618164 1.500007629394531 47.49993133544922 C 1.500007629394531 41.2893180847168 2.716034412384033 35.26527786254883 5.114300727844238 29.59514427185059 C 7.431074142456055 24.11769104003906 10.74804782867432 19.19810485839844 14.97310066223145 14.97306442260742 C 19.19814109802246 10.74803829193115 24.11772727966309 7.431051254272461 29.59519386291504 5.114291191101074 C 35.26534271240234 2.71602463722229 41.28937911987305 1.499997973442078 47.50000762939453 1.499997973442078 C 53.71063613891602 1.499997973442078 59.73468780517578 2.71602463722229 65.40482330322266 5.114291191101074 C 70.88230133056641 7.431051254272461 75.80187225341797 10.74803829193115 80.02692413330078 14.97306442260742 C 84.25196838378906 19.19810485839844 87.56893920898438 24.11769104003906 89.88571166992188 29.59514427185059 C 92.28398132324219 35.26527786254883 93.50000762939453 41.2893180847168 93.50000762939453 47.49993133544922 C 93.50000762939453 53.71054458618164 92.28398132324219 59.73458480834961 89.88571166992188 65.40471649169922 C 87.56893920898438 70.88218688964844 84.25196838378906 75.8017578125 80.02692413330078 80.02679443359375 C 75.80187225341797 84.25183868408203 70.88230133056641 87.56880950927734 65.40482330322266 89.88558197021484 C 59.73468780517578 92.28383636474609 53.71063613891602 93.49986267089844 47.50000762939453 93.49986267089844 Z" stroke="none"/>
                                        <path d="M 47.50000762939453 2.999992370605469 C 41.4912223815918 2.999992370605469 35.66377639770508 4.1761474609375 30.17951202392578 6.495796203613281 C 24.88085174560547 8.736930847167969 20.12152862548828 11.94596099853516 16.03376007080078 16.03372955322266 C 11.94599151611328 20.12149810791016 8.736961364746094 24.88080596923828 6.495803833007812 30.17946624755859 C 4.176162719726562 35.66371536254883 3.000007629394531 41.49116134643555 3.000007629394531 47.49993133544922 C 3.000007629394531 53.50870132446289 4.176162719726562 59.33614730834961 6.495803833007812 64.82038879394531 C 8.736961364746094 70.11905670166016 11.94597625732422 74.87836456298828 16.03376007080078 78.96613311767578 C 20.12152862548828 83.05390167236328 24.88085174560547 86.26291656494141 30.17951202392578 88.50406646728516 C 35.66377639770508 90.82369995117188 41.4912223815918 91.99985504150391 47.50000762939453 91.99985504150391 C 53.50879287719727 91.99985504150391 59.33623886108398 90.82369995117188 64.82049560546875 88.50406646728516 C 70.11916351318359 86.26291656494141 74.87848663330078 83.05390167236328 78.96625518798828 78.96613311767578 C 83.05403900146484 74.87836456298828 86.26305389404297 70.11905670166016 88.50421142578125 64.82038879394531 C 90.8238525390625 59.33614730834961 92.00000762939453 53.50870132446289 92.00000762939453 47.49993133544922 C 92.00000762939453 41.49116134643555 90.8238525390625 35.66371536254883 88.50421142578125 30.17946624755859 C 86.26305389404297 24.88080596923828 83.05402374267578 20.12149810791016 78.96625518798828 16.03372955322266 C 74.87848663330078 11.94596099853516 70.11916351318359 8.736930847167969 64.82049560546875 6.495796203613281 C 59.33623886108398 4.1761474609375 53.50879287719727 2.999992370605469 47.50000762939453 2.999992370605469 M 47.50000762939453 -7.62939453125e-06 C 73.73352813720703 -7.62939453125e-06 95.00000762939453 21.26645660400391 95.00000762939453 47.49993133544922 C 95.00000762939453 73.73342132568359 73.73352813720703 94.99985504150391 47.50000762939453 94.99985504150391 C 21.26648712158203 94.99985504150391 7.62939453125e-06 73.73342132568359 7.62939453125e-06 47.49993133544922 C 7.62939453125e-06 21.26645660400391 21.26648712158203 -7.62939453125e-06 47.50000762939453 -7.62939453125e-06 Z" stroke="none" fill="#2777df"/>
                                      </g>
                                    </g>
                                  </g>
                                </g>
                              </g>
                            </g>
                          </g>
                        </g>
                      </g>
                    </g>
                  </g>
                </g>
              </g>
            </g>
          </g>
        </g>
      </g>
    </g>
    <g id="upselling_18306736" transform="translate(197.824 3924.932)">
      <path id="Trazado_1037065" data-name="Trazado 1037065" d="M209.53,207.14h30.107a2.346,2.346,0,0,1,2.34,2.34v30.107a2.346,2.346,0,0,1-2.34,2.34H209.53a2.346,2.346,0,0,1-2.34-2.34V209.48A2.346,2.346,0,0,1,209.53,207.14Z" transform="translate(-167.657 -167.58)" fill="#d5a889" fill-rule="evenodd"/>
      <path id="Trazado_1037066" data-name="Trazado 1037066" d="M305.57,207.14h10.593v10.6H305.57Z" transform="translate(-253.941 -167.58)" fill="#efc7a4" fill-rule="evenodd"/>
      <path id="Trazado_1037067" data-name="Trazado 1037067" d="M23.209,333.97H39.743a1.332,1.332,0,0,1,1.329,1.329v16.536a1.332,1.332,0,0,1-1.329,1.329H23.209a1.332,1.332,0,0,1-1.329-1.329V335.3A1.332,1.332,0,0,1,23.209,333.97Z" transform="translate(-5.131 -278.816)" fill="#d5a889" fill-rule="evenodd"/>
      <path id="Trazado_1037068" data-name="Trazado 1037068" d="M76.16,333.97h5.845v5.85H76.16Z" transform="translate(-52.737 -278.816)" fill="#efc7a4" fill-rule="evenodd"/>
      <circle id="Elipse_12489" data-name="Elipse 12489" cx="8.745" cy="8.745" r="8.745" transform="translate(48.543 53.51)" fill="#ffe38d"/>
      <path id="Trazado_1037069" data-name="Trazado 1037069" d="M162.081,339.78v2.674H149.47v7.425h12.611v2.675l7.017-6.387Z" transform="translate(-117.034 -283.912)" fill="#6cb2e8" fill-rule="evenodd"/>
      <path id="Trazado_1037070" data-name="Trazado 1037070" d="M62.58,117.927h2.675v12.612H72.68V117.927h2.674l-6.387-7.017Z" transform="translate(-40.827 -83.182)" fill="#9ddb53" fill-rule="evenodd"/>
      <path id="Trazado_1037071" data-name="Trazado 1037071" d="M204.05,28.847h2.674V41.458h7.425V28.847h2.675l-6.387-7.017Z" transform="translate(-164.903 -5.054)" fill="#9ddb53" fill-rule="evenodd"/>
      <path id="Trazado_1037072" data-name="Trazado 1037072" d="M45.534,17.846l4.758,5.228H49.246a.719.719,0,0,0-.719.719V35.684H42.542V23.793a.719.719,0,0,0-.719-.719H40.776Zm-6.387,6.666H41.1V36.4a.719.719,0,0,0,.719.719h7.425a.719.719,0,0,0,.719-.719V24.512H51.92a.72.72,0,0,0,.532-1.2l-6.387-7.017a.744.744,0,0,0-1.065,0l-6.387,7.017a.72.72,0,0,0,.534,1.2ZM28.141,28.8,32.9,34.026H31.854a.719.719,0,0,0-.719.719V46.637H25.148V34.745a.719.719,0,0,0-.719-.719H23.382Zm-6.387,6.668h1.955V47.357a.719.719,0,0,0,.719.719h7.425a.719.719,0,0,0,.719-.719V35.466h1.955a.72.72,0,0,0,.532-1.2l-6.387-7.017a.741.741,0,0,0-1.064,0l-6.387,7.017a.72.72,0,0,0,.532,1.2Zm37.47,28.951c0-.97-.567-1.169-2.068-1.454-1.29-.245-3.239-.615-3.239-2.868a3.033,3.033,0,0,1,2.653-2.813v-.8a.719.719,0,1,1,1.439,0v.8a3.033,3.033,0,0,1,2.653,2.813.719.719,0,0,1-1.439,0c0-.781-.886-1.442-1.934-1.442s-1.934.66-1.934,1.442c0,.97.567,1.169,2.068,1.454,1.29.245,3.238.615,3.238,2.868a3.033,3.033,0,0,1-2.653,2.813v.8a.719.719,0,0,1-1.439,0v-.8a3.033,3.033,0,0,1-2.653-2.813.719.719,0,1,1,1.439,0c0,.781.885,1.441,1.934,1.441S59.223,65.2,59.223,64.417ZM24.012,68.168a.719.719,0,0,1-.719.719H19.668a.719.719,0,0,1,0-1.439h3.625A.717.717,0,0,1,24.012,68.168Zm0,2.674a.719.719,0,0,1-.719.719H19.668a.719.719,0,0,1,0-1.439h3.625A.719.719,0,0,1,24.012,70.842ZM73.6,72.008V41.9a1.622,1.622,0,0,0-1.62-1.619H62.943v9.883a.719.719,0,0,1-.719.719H51.63a.719.719,0,0,1-.719-.719V40.28H41.874a1.622,1.622,0,0,0-1.62,1.619V57.823h4.076V55.867a.72.72,0,0,1,1.2-.532l3.191,2.9a9.464,9.464,0,1,1,0,8.03l-3.191,2.9a.719.719,0,0,1-.484.187.707.707,0,0,1-.29-.061.721.721,0,0,1-.429-.658V66.685H40.254v5.32a1.622,1.622,0,0,0,1.62,1.62H71.981A1.618,1.618,0,0,0,73.6,72.008ZM35.222,73.018V66.688H32.436a.719.719,0,0,1-.719-.719V58.543a.719.719,0,0,1,.719-.719h2.786v-1.34a.611.611,0,0,0-.61-.61H29.987V61a.719.719,0,0,1-.719.719H23.423A.719.719,0,0,1,22.7,61V55.874H18.078a.61.61,0,0,0-.609.61V73.019a.61.61,0,0,0,.609.61H34.614A.612.612,0,0,0,35.222,73.018ZM24.143,55.873h4.405v4.41H24.143Zm28.405,5.85a.721.721,0,0,1,0,1.065l-2.7,2.461a8.026,8.026,0,1,0,0-5.988Zm-1.554.532-5.228,4.759V65.968a.719.719,0,0,0-.719-.719H33.156V59.264H45.047a.719.719,0,0,0,.719-.719V57.5Q48.382,59.874,50.994,62.255ZM52.348,40.28H61.5v9.163H52.348Zm19.631-1.44H41.873A3.062,3.062,0,0,0,38.814,41.9V57.823H36.662v-1.34a2.051,2.051,0,0,0-2.048-2.048H18.078a2.051,2.051,0,0,0-2.048,2.048V73.018a2.052,2.052,0,0,0,2.048,2.05H34.614a2.051,2.051,0,0,0,2.048-2.05V66.688h2.152v5.32a3.062,3.062,0,0,0,3.059,3.059H71.98a3.062,3.062,0,0,0,3.059-3.059V41.9A3.062,3.062,0,0,0,71.98,38.841Z" fill-rule="evenodd"/>
    </g>
  </g>
</svg>
